<?xml version="1.0" encoding="iso-8859-1"?>
<!-- Generator: Adobe Illustrator 19.0.0, SVG Export Plug-In . SVG Version: 6.00 Build 0)  -->
<svg version="1.1" id="Capa_1" xmlns="http://www.w3.org/2000/svg" xmlns:xlink="http://www.w3.org/1999/xlink" x="0px" y="0px"
	 viewBox="0 0 353.4 353.4" style="enable-background:new 0 0 353.4 353.4;" xml:space="preserve">
<g>
	<g>
		<path d="M350.223,336l-55.6-55.2c24-45.2,34.4-83.6,34.4-115.6c0-28-8-51.6-22-71.6c-13.6-19.6-32.4-34.8-54.4-47.2
			c-28-15.6-60.8-26-94.8-32.8c-0.4,0-0.8,0-0.8-0.4C103.423,2.4,48.223,0,9.823,0c-0.4,0-0.8,0-0.8,0c-0.4,0-0.8,0-1.2,0
			c-0.4,0-0.8,0-0.8,0.4c-0.4,0-0.8,0-0.8,0.4c-0.4,0-0.4,0.4-0.8,0.4s-0.4,0.4-0.8,0.4c-0.4,0-0.4,0.4-0.8,0.8
			c-0.4,0.4-0.4,0.4-0.8,0.8c-0.4,0.4-0.4,0.4-0.4,0.8c-0.4,0.4-0.4,0.4-0.8,0.8c0,0.4-0.4,0.4-0.4,0.8c0,0.4-0.4,0.4-0.4,0.8
			s0,0.4-0.4,0.8c0,0.4-0.4,0.8-0.4,1.2c0,0.4,0,0.8,0,0.8c0,0.4,0,0.8,0,1.2c-0.4,38.4,1.6,94,12.8,147.6c2,8.8,4,17.6,6,26.4
			c11.6,43.2,29.6,82.8,58,110c23.2,22.4,53.2,36,91.6,34.8c31.2-0.8,68.4-11.2,111.6-34.4l55.6,55.6c4,4,10.4,4,14.4,0
			S354.223,340,350.223,336z M221.823,54l6.8,160.8l-56.8-56.8l-5.2-121.6C185.823,40.8,204.623,46.8,221.823,54z M20.223,20.8
			c34.8,0.4,80.8,2.8,126,11.2l4.4,104.8l-64.4-64.4c-4-4-10.4-4-14.4,0s-4,10.4,0,14.4l64.4,64.4l-104.8-4.4
			C23.023,101.6,20.623,55.6,20.223,20.8z M38.223,179.2c-0.8-4-1.6-8-2.8-12l121.6,5.2l57.2,56.8l-161.2-6.8
			C47.423,208.8,42.223,194.4,38.223,179.2z M168.223,309.2c-32.4,0.8-57.6-10.4-77.2-29.2c-10.8-10.4-20-22.8-27.6-36.8l172,7.6
			l29.6,29.6C227.423,299.6,195.423,308.8,168.223,309.2z M279.823,266l-29.6-29.6l-7.6-172c0,0,0.4,0,0.4,0.4
			c19.2,10.4,36,23.6,47.6,40.4c11.6,16.4,18,36.4,18.4,60C309.023,192.8,300.223,226,279.823,266z"/>
	</g>
</g>
<g>
</g>
<g>
</g>
<g>
</g>
<g>
</g>
<g>
</g>
<g>
</g>
<g>
</g>
<g>
</g>
<g>
</g>
<g>
</g>
<g>
</g>
<g>
</g>
<g>
</g>
<g>
</g>
<g>
</g>
</svg>
